%
M48
M72
T01C0.0236
T02C0.0315
T03C0.0320
T04C0.0354
T05C0.0360
T06C0.0394
T07C0.0400
T08C0.0550
T09C0.1260
%
T01
X22851Y15742
T02
X12351Y33742
X11851Y4742
T03
X8351Y15242
X9101Y15742
X8351Y16242
X8351Y11242
X9101Y11742
X8351Y12242
X8351Y7242
X9101Y7742
X8351Y8242
X8351Y3242
X9101Y3742
X8351Y4242
X8351Y31242
X9101Y31742
X8351Y32242
X8351Y27242
X9101Y27742
X8351Y28242
X8351Y23242
X9101Y23742
X8351Y24242
X8351Y19242
X9101Y19742
X8351Y20242
X30101Y10742
X30101Y11742
X30101Y16742
X30101Y17742
X30101Y12742
X30101Y13742
X30101Y15742
X30101Y14742
X27101Y17742
X27101Y16742
X27101Y15742
X27101Y14742
X27101Y13742
X27101Y12742
X27101Y11742
X27101Y10742
X30101Y19742
X30101Y20742
X30101Y25742
X30101Y26742
X30101Y21742
X30101Y22742
X30101Y24742
X30101Y23742
X27101Y26742
X27101Y25742
X27101Y24742
X27101Y23742
X27101Y22742
X27101Y21742
X27101Y20742
X27101Y19742
X18101Y21742
X18101Y20742
X18101Y19742
X18101Y18742
X18101Y17742
X18101Y16742
X18101Y15742
X18101Y14742
X18101Y13742
X18101Y12742
X18101Y11742
X18101Y10742
X18101Y9742
X18101Y8742
X21101Y8742
X21101Y9742
X21101Y10742
X21101Y11742
X21101Y12742
X21101Y13742
X21101Y14742
X21101Y15742
X21101Y16742
X21101Y17742
X21101Y18742
X21101Y19742
X21101Y20742
X21101Y21742
X15101Y12292
X15101Y14192
T04
X28601Y7742
X28601Y8742
X27601Y8742
X27601Y7742
X29601Y7742
X29601Y8742
T05
X15351Y3242
X14351Y3242
X15351Y1742
X14351Y1742
X24601Y24242
X24601Y25242
X24601Y26242
X22601Y6742
X22601Y7742
X23601Y6742
X23601Y7742
X26351Y29492
X26351Y30492
X24351Y29492
X24351Y30492
T06
X11601Y27242
X12601Y27242
X13601Y27242
X14601Y27242
X15601Y27242
X16601Y27242
T07
X20881Y24352
X20881Y26132
X18321Y24352
X18321Y26132
X19101Y31742
X21101Y31742
T08
X4101Y15742
X4101Y13742
X4101Y1742
X4101Y11742
X4101Y9742
X4101Y3742
X4101Y7742
X4101Y5742
X4101Y32742
X4101Y30742
X4101Y18742
X4101Y28742
X4101Y26742
X4101Y20742
X4101Y24742
X4101Y22742
X35101Y1742
X35101Y3742
X35101Y15742
X35101Y5742
X35101Y7742
X35101Y13742
X35101Y9742
X35101Y11742
X35101Y18742
X35101Y20742
X35101Y32742
X35101Y22742
X35101Y24742
X35101Y30742
X35101Y26742
X35101Y28742
X7601Y35742
X5601Y35742
X1601Y35742
X3601Y35742
X37601Y35742
X35601Y35742
X31601Y35742
X33601Y35742
X19601Y4242
X21601Y4242
X25601Y4242
X23601Y4242
X23101Y35742
X21101Y35742
X17101Y35742
X19101Y35742
T09
X10101Y30242
X29601Y30242
X10101Y2242
X29601Y2242
M30
