G75*
G70*
%OFA0B0*%
%FSLAX24Y24*%
%IPPOS*%
%LPD*%
%AMOC8*
5,1,8,0,0,1.08239X$1,22.5*
%
%ADD10C,0.0000*%
%ADD11C,0.0825*%
%ADD12R,0.1000X0.1000*%
%ADD13OC8,0.0520*%
%ADD14C,0.0520*%
%ADD15R,0.0710X0.0630*%
%ADD16C,0.0600*%
%ADD17C,0.0660*%
%ADD18R,0.0512X0.0591*%
%ADD19C,0.0520*%
%ADD20C,0.0640*%
%ADD21C,0.1000*%
%ADD22OC8,0.1000*%
%ADD23C,0.0560*%
%ADD24OC8,0.0560*%
%ADD25R,0.0591X0.0512*%
%ADD26R,0.1100X0.0900*%
%ADD27C,0.0320*%
%ADD28C,0.0700*%
%ADD29C,0.0472*%
%ADD30C,0.0315*%
%ADD31C,0.0160*%
%ADD32C,0.0356*%
%ADD33C,0.0157*%
%ADD34C,0.0079*%
%ADD35C,0.0100*%
D10*
X000101Y000242D02*
X000101Y039612D01*
X039093Y039612D01*
X039093Y000242D01*
X000101Y000242D01*
X009471Y002242D02*
X009473Y002292D01*
X009479Y002342D01*
X009489Y002391D01*
X009503Y002439D01*
X009520Y002486D01*
X009541Y002531D01*
X009566Y002575D01*
X009594Y002616D01*
X009626Y002655D01*
X009660Y002692D01*
X009697Y002726D01*
X009737Y002756D01*
X009779Y002783D01*
X009823Y002807D01*
X009869Y002828D01*
X009916Y002844D01*
X009964Y002857D01*
X010014Y002866D01*
X010063Y002871D01*
X010114Y002872D01*
X010164Y002869D01*
X010213Y002862D01*
X010262Y002851D01*
X010310Y002836D01*
X010356Y002818D01*
X010401Y002796D01*
X010444Y002770D01*
X010485Y002741D01*
X010524Y002709D01*
X010560Y002674D01*
X010592Y002636D01*
X010622Y002596D01*
X010649Y002553D01*
X010672Y002509D01*
X010691Y002463D01*
X010707Y002415D01*
X010719Y002366D01*
X010727Y002317D01*
X010731Y002267D01*
X010731Y002217D01*
X010727Y002167D01*
X010719Y002118D01*
X010707Y002069D01*
X010691Y002021D01*
X010672Y001975D01*
X010649Y001931D01*
X010622Y001888D01*
X010592Y001848D01*
X010560Y001810D01*
X010524Y001775D01*
X010485Y001743D01*
X010444Y001714D01*
X010401Y001688D01*
X010356Y001666D01*
X010310Y001648D01*
X010262Y001633D01*
X010213Y001622D01*
X010164Y001615D01*
X010114Y001612D01*
X010063Y001613D01*
X010014Y001618D01*
X009964Y001627D01*
X009916Y001640D01*
X009869Y001656D01*
X009823Y001677D01*
X009779Y001701D01*
X009737Y001728D01*
X009697Y001758D01*
X009660Y001792D01*
X009626Y001829D01*
X009594Y001868D01*
X009566Y001909D01*
X009541Y001953D01*
X009520Y001998D01*
X009503Y002045D01*
X009489Y002093D01*
X009479Y002142D01*
X009473Y002192D01*
X009471Y002242D01*
X028971Y002242D02*
X028973Y002292D01*
X028979Y002342D01*
X028989Y002391D01*
X029003Y002439D01*
X029020Y002486D01*
X029041Y002531D01*
X029066Y002575D01*
X029094Y002616D01*
X029126Y002655D01*
X029160Y002692D01*
X029197Y002726D01*
X029237Y002756D01*
X029279Y002783D01*
X029323Y002807D01*
X029369Y002828D01*
X029416Y002844D01*
X029464Y002857D01*
X029514Y002866D01*
X029563Y002871D01*
X029614Y002872D01*
X029664Y002869D01*
X029713Y002862D01*
X029762Y002851D01*
X029810Y002836D01*
X029856Y002818D01*
X029901Y002796D01*
X029944Y002770D01*
X029985Y002741D01*
X030024Y002709D01*
X030060Y002674D01*
X030092Y002636D01*
X030122Y002596D01*
X030149Y002553D01*
X030172Y002509D01*
X030191Y002463D01*
X030207Y002415D01*
X030219Y002366D01*
X030227Y002317D01*
X030231Y002267D01*
X030231Y002217D01*
X030227Y002167D01*
X030219Y002118D01*
X030207Y002069D01*
X030191Y002021D01*
X030172Y001975D01*
X030149Y001931D01*
X030122Y001888D01*
X030092Y001848D01*
X030060Y001810D01*
X030024Y001775D01*
X029985Y001743D01*
X029944Y001714D01*
X029901Y001688D01*
X029856Y001666D01*
X029810Y001648D01*
X029762Y001633D01*
X029713Y001622D01*
X029664Y001615D01*
X029614Y001612D01*
X029563Y001613D01*
X029514Y001618D01*
X029464Y001627D01*
X029416Y001640D01*
X029369Y001656D01*
X029323Y001677D01*
X029279Y001701D01*
X029237Y001728D01*
X029197Y001758D01*
X029160Y001792D01*
X029126Y001829D01*
X029094Y001868D01*
X029066Y001909D01*
X029041Y001953D01*
X029020Y001998D01*
X029003Y002045D01*
X028989Y002093D01*
X028979Y002142D01*
X028973Y002192D01*
X028971Y002242D01*
X028971Y030242D02*
X028973Y030292D01*
X028979Y030342D01*
X028989Y030391D01*
X029003Y030439D01*
X029020Y030486D01*
X029041Y030531D01*
X029066Y030575D01*
X029094Y030616D01*
X029126Y030655D01*
X029160Y030692D01*
X029197Y030726D01*
X029237Y030756D01*
X029279Y030783D01*
X029323Y030807D01*
X029369Y030828D01*
X029416Y030844D01*
X029464Y030857D01*
X029514Y030866D01*
X029563Y030871D01*
X029614Y030872D01*
X029664Y030869D01*
X029713Y030862D01*
X029762Y030851D01*
X029810Y030836D01*
X029856Y030818D01*
X029901Y030796D01*
X029944Y030770D01*
X029985Y030741D01*
X030024Y030709D01*
X030060Y030674D01*
X030092Y030636D01*
X030122Y030596D01*
X030149Y030553D01*
X030172Y030509D01*
X030191Y030463D01*
X030207Y030415D01*
X030219Y030366D01*
X030227Y030317D01*
X030231Y030267D01*
X030231Y030217D01*
X030227Y030167D01*
X030219Y030118D01*
X030207Y030069D01*
X030191Y030021D01*
X030172Y029975D01*
X030149Y029931D01*
X030122Y029888D01*
X030092Y029848D01*
X030060Y029810D01*
X030024Y029775D01*
X029985Y029743D01*
X029944Y029714D01*
X029901Y029688D01*
X029856Y029666D01*
X029810Y029648D01*
X029762Y029633D01*
X029713Y029622D01*
X029664Y029615D01*
X029614Y029612D01*
X029563Y029613D01*
X029514Y029618D01*
X029464Y029627D01*
X029416Y029640D01*
X029369Y029656D01*
X029323Y029677D01*
X029279Y029701D01*
X029237Y029728D01*
X029197Y029758D01*
X029160Y029792D01*
X029126Y029829D01*
X029094Y029868D01*
X029066Y029909D01*
X029041Y029953D01*
X029020Y029998D01*
X029003Y030045D01*
X028989Y030093D01*
X028979Y030142D01*
X028973Y030192D01*
X028971Y030242D01*
X009471Y030242D02*
X009473Y030292D01*
X009479Y030342D01*
X009489Y030391D01*
X009503Y030439D01*
X009520Y030486D01*
X009541Y030531D01*
X009566Y030575D01*
X009594Y030616D01*
X009626Y030655D01*
X009660Y030692D01*
X009697Y030726D01*
X009737Y030756D01*
X009779Y030783D01*
X009823Y030807D01*
X009869Y030828D01*
X009916Y030844D01*
X009964Y030857D01*
X010014Y030866D01*
X010063Y030871D01*
X010114Y030872D01*
X010164Y030869D01*
X010213Y030862D01*
X010262Y030851D01*
X010310Y030836D01*
X010356Y030818D01*
X010401Y030796D01*
X010444Y030770D01*
X010485Y030741D01*
X010524Y030709D01*
X010560Y030674D01*
X010592Y030636D01*
X010622Y030596D01*
X010649Y030553D01*
X010672Y030509D01*
X010691Y030463D01*
X010707Y030415D01*
X010719Y030366D01*
X010727Y030317D01*
X010731Y030267D01*
X010731Y030217D01*
X010727Y030167D01*
X010719Y030118D01*
X010707Y030069D01*
X010691Y030021D01*
X010672Y029975D01*
X010649Y029931D01*
X010622Y029888D01*
X010592Y029848D01*
X010560Y029810D01*
X010524Y029775D01*
X010485Y029743D01*
X010444Y029714D01*
X010401Y029688D01*
X010356Y029666D01*
X010310Y029648D01*
X010262Y029633D01*
X010213Y029622D01*
X010164Y029615D01*
X010114Y029612D01*
X010063Y029613D01*
X010014Y029618D01*
X009964Y029627D01*
X009916Y029640D01*
X009869Y029656D01*
X009823Y029677D01*
X009779Y029701D01*
X009737Y029728D01*
X009697Y029758D01*
X009660Y029792D01*
X009626Y029829D01*
X009594Y029868D01*
X009566Y029909D01*
X009541Y029953D01*
X009520Y029998D01*
X009503Y030045D01*
X009489Y030093D01*
X009479Y030142D01*
X009473Y030192D01*
X009471Y030242D01*
D11*
X004513Y030742D02*
X003688Y030742D01*
X003688Y032742D02*
X004513Y032742D01*
X003601Y035329D02*
X003601Y036154D01*
X005601Y036154D02*
X005601Y035329D01*
X007601Y035329D02*
X007601Y036154D01*
X001601Y036154D02*
X001601Y035329D01*
X003688Y028742D02*
X004513Y028742D01*
X004513Y026742D02*
X003688Y026742D01*
X003688Y024742D02*
X004513Y024742D01*
X004513Y022742D02*
X003688Y022742D01*
X003688Y020742D02*
X004513Y020742D01*
X004513Y018742D02*
X003688Y018742D01*
X003688Y015742D02*
X004513Y015742D01*
X004513Y013742D02*
X003688Y013742D01*
X003688Y011742D02*
X004513Y011742D01*
X004513Y009742D02*
X003688Y009742D01*
X003688Y007742D02*
X004513Y007742D01*
X004513Y005742D02*
X003688Y005742D01*
X003688Y003742D02*
X004513Y003742D01*
X004513Y001742D02*
X003688Y001742D01*
X019601Y003829D02*
X019601Y004654D01*
X021601Y004654D02*
X021601Y003829D01*
X023601Y003829D02*
X023601Y004654D01*
X025601Y004654D02*
X025601Y003829D01*
X034688Y003742D02*
X035513Y003742D01*
X035513Y005742D02*
X034688Y005742D01*
X034688Y007742D02*
X035513Y007742D01*
X035513Y009742D02*
X034688Y009742D01*
X034688Y011742D02*
X035513Y011742D01*
X035513Y013742D02*
X034688Y013742D01*
X034688Y015742D02*
X035513Y015742D01*
X035513Y018742D02*
X034688Y018742D01*
X034688Y020742D02*
X035513Y020742D01*
X035513Y022742D02*
X034688Y022742D01*
X034688Y024742D02*
X035513Y024742D01*
X035513Y026742D02*
X034688Y026742D01*
X034688Y028742D02*
X035513Y028742D01*
X035513Y030742D02*
X034688Y030742D01*
X034688Y032742D02*
X035513Y032742D01*
X035601Y035329D02*
X035601Y036154D01*
X037601Y036154D02*
X037601Y035329D01*
X033601Y035329D02*
X033601Y036154D01*
X031601Y036154D02*
X031601Y035329D01*
X023101Y035329D02*
X023101Y036154D01*
X021101Y036154D02*
X021101Y035329D01*
X019101Y035329D02*
X019101Y036154D01*
X017101Y036154D02*
X017101Y035329D01*
X034688Y001742D02*
X035513Y001742D01*
D12*
X030026Y033242D03*
X028176Y033242D03*
X015526Y033742D03*
X013676Y033742D03*
X010276Y033742D03*
X008426Y033742D03*
X002101Y032667D03*
X002101Y030817D03*
X002101Y028667D03*
X002101Y026817D03*
X002101Y024667D03*
X002101Y022817D03*
X002101Y020667D03*
X002101Y018817D03*
X002101Y015667D03*
X002101Y013817D03*
X002101Y011667D03*
X002101Y009817D03*
X002101Y007667D03*
X002101Y005817D03*
X002101Y003667D03*
X002101Y001817D03*
D13*
X008351Y003242D03*
X009101Y003742D03*
X008351Y004242D03*
X008351Y007242D03*
X009101Y007742D03*
X008351Y008242D03*
X008351Y011242D03*
X009101Y011742D03*
X008351Y012242D03*
X008351Y015242D03*
X009101Y015742D03*
X008351Y016242D03*
X008351Y019242D03*
X009101Y019742D03*
X008351Y020242D03*
X008351Y023242D03*
X009101Y023742D03*
X008351Y024242D03*
X008351Y027242D03*
X009101Y027742D03*
X008351Y028242D03*
X008351Y031242D03*
X009101Y031742D03*
X008351Y032242D03*
D14*
X017841Y021742D02*
X018361Y021742D01*
X018361Y020742D02*
X017841Y020742D01*
X017841Y019742D02*
X018361Y019742D01*
X018361Y018742D02*
X017841Y018742D01*
X017841Y017742D02*
X018361Y017742D01*
X018361Y016742D02*
X017841Y016742D01*
X017841Y015742D02*
X018361Y015742D01*
X018361Y014742D02*
X017841Y014742D01*
X017841Y013742D02*
X018361Y013742D01*
X018361Y012742D02*
X017841Y012742D01*
X017841Y011742D02*
X018361Y011742D01*
X018361Y010742D02*
X017841Y010742D01*
X017841Y009742D02*
X018361Y009742D01*
X018361Y008742D02*
X017841Y008742D01*
X020841Y008742D02*
X021361Y008742D01*
X021361Y009742D02*
X020841Y009742D01*
X020841Y010742D02*
X021361Y010742D01*
X021361Y011742D02*
X020841Y011742D01*
X020841Y012742D02*
X021361Y012742D01*
X021361Y013742D02*
X020841Y013742D01*
X020841Y014742D02*
X021361Y014742D01*
X021361Y015742D02*
X020841Y015742D01*
X020841Y016742D02*
X021361Y016742D01*
X021361Y017742D02*
X020841Y017742D01*
X020841Y018742D02*
X021361Y018742D01*
X021361Y019742D02*
X020841Y019742D01*
X020841Y020742D02*
X021361Y020742D01*
X021361Y021742D02*
X020841Y021742D01*
X026581Y021742D02*
X027101Y021742D01*
X027101Y020742D02*
X026581Y020742D01*
X026581Y019742D02*
X027101Y019742D01*
X027101Y017742D02*
X026581Y017742D01*
X026581Y016742D02*
X027101Y016742D01*
X027101Y015742D02*
X026581Y015742D01*
X026581Y014742D02*
X027101Y014742D01*
X027101Y013742D02*
X026581Y013742D01*
X026581Y012742D02*
X027101Y012742D01*
X027101Y011742D02*
X026581Y011742D01*
X026581Y010742D02*
X027101Y010742D01*
X030101Y010742D02*
X030621Y010742D01*
X030621Y011742D02*
X030101Y011742D01*
X030101Y012742D02*
X030621Y012742D01*
X030621Y013742D02*
X030101Y013742D01*
X030101Y014742D02*
X030621Y014742D01*
X030621Y015742D02*
X030101Y015742D01*
X030101Y016742D02*
X030621Y016742D01*
X030621Y017742D02*
X030101Y017742D01*
X030101Y019742D02*
X030621Y019742D01*
X030621Y020742D02*
X030101Y020742D01*
X030101Y021742D02*
X030621Y021742D01*
X030621Y022742D02*
X030101Y022742D01*
X030101Y023742D02*
X030621Y023742D01*
X030621Y024742D02*
X030101Y024742D01*
X030101Y025742D02*
X030621Y025742D01*
X030621Y026742D02*
X030101Y026742D01*
X027101Y026742D02*
X026581Y026742D01*
X026581Y025742D02*
X027101Y025742D01*
X027101Y024742D02*
X026581Y024742D01*
X026581Y023742D02*
X027101Y023742D01*
X027101Y022742D02*
X026581Y022742D01*
D15*
X036851Y022182D03*
X036851Y023302D03*
X036851Y026182D03*
X036851Y027302D03*
X036851Y030182D03*
X036851Y031302D03*
X027601Y035182D03*
X027601Y036302D03*
X015101Y036182D03*
X015101Y037302D03*
X009601Y037302D03*
X009601Y036182D03*
X036851Y019302D03*
X036851Y018182D03*
X036851Y014302D03*
X036851Y013182D03*
X036851Y010302D03*
X036851Y009182D03*
X036851Y006302D03*
X036851Y005182D03*
X036851Y002302D03*
X036851Y001182D03*
D16*
X021181Y024352D02*
X020581Y024352D01*
X020581Y026132D02*
X021181Y026132D01*
X018621Y026132D02*
X018021Y026132D01*
X018021Y024352D02*
X018621Y024352D01*
D17*
X016601Y027242D03*
X015601Y027242D03*
X014601Y027242D03*
X013601Y027242D03*
X012601Y027242D03*
X011601Y027242D03*
D18*
X013766Y024742D03*
X014435Y024742D03*
X018766Y028242D03*
X019435Y028242D03*
X019766Y030242D03*
X020435Y030242D03*
X016935Y013742D03*
X016266Y013742D03*
X016266Y012742D03*
X016935Y012742D03*
X020266Y002742D03*
X020935Y002742D03*
X024266Y002742D03*
X024935Y002742D03*
X012935Y002742D03*
X012266Y002742D03*
X012266Y001242D03*
X012935Y001242D03*
D19*
X015101Y012292D03*
X015101Y014192D03*
D20*
X027601Y008742D03*
X028601Y008742D03*
X028601Y007742D03*
X027601Y007742D03*
X029601Y007742D03*
X029601Y008742D03*
D21*
X019101Y031742D03*
D22*
X021101Y031742D03*
D23*
X024071Y030492D02*
X024631Y030492D01*
X024631Y029492D02*
X024071Y029492D01*
X026071Y029492D02*
X026631Y029492D01*
X026631Y030492D02*
X026071Y030492D01*
X024881Y026242D02*
X024321Y026242D01*
X024321Y025242D02*
X024881Y025242D01*
X024881Y024242D02*
X024321Y024242D01*
X015351Y003522D02*
X015351Y002962D01*
X015351Y002022D02*
X015351Y001462D01*
X014351Y001462D02*
X014351Y002022D01*
X014351Y002962D02*
X014351Y003522D01*
D24*
X022601Y006742D03*
X023601Y006742D03*
X023601Y007742D03*
X022601Y007742D03*
D25*
X028351Y010907D03*
X028351Y011577D03*
X028351Y012907D03*
X028351Y013577D03*
X028351Y014907D03*
X028351Y015577D03*
X028351Y016907D03*
X028351Y017577D03*
X028351Y019907D03*
X028351Y020577D03*
X028351Y021907D03*
X028351Y022577D03*
X028351Y023907D03*
X028351Y024577D03*
X028351Y025907D03*
X028351Y026577D03*
X019601Y015577D03*
X019601Y014907D03*
D26*
X029101Y034936D03*
X029101Y036547D03*
X013601Y035936D03*
X013601Y037547D03*
X011101Y037547D03*
X011101Y035936D03*
D27*
X011101Y033742D02*
X012351Y033742D01*
X013676Y031742D02*
X013676Y027317D01*
X013601Y027242D01*
X013601Y024907D01*
X013766Y024742D01*
X019101Y030242D02*
X019101Y031742D01*
X019101Y030242D02*
X019766Y030242D01*
X020435Y030242D02*
X021101Y030242D01*
X021101Y029742D01*
X021601Y029242D01*
X022851Y030492D01*
X024351Y030492D01*
X024351Y029492D02*
X025601Y028242D01*
X030101Y028242D01*
X031476Y029617D01*
X031476Y033367D01*
X030101Y033242D02*
X030026Y033242D01*
X028176Y033242D02*
X028176Y029242D01*
X026601Y029242D01*
X026351Y029492D01*
X025351Y027492D02*
X028851Y027492D01*
X029101Y027242D01*
X029101Y025992D01*
X029016Y025907D01*
X028351Y025907D01*
X029101Y025992D02*
X029101Y023992D01*
X029016Y023907D01*
X028351Y023907D01*
X029101Y023992D02*
X029101Y021992D01*
X029016Y021907D01*
X028351Y021907D01*
X029101Y021992D02*
X029101Y019992D01*
X029016Y019907D01*
X028351Y019907D01*
X029101Y019992D02*
X029101Y016992D01*
X029016Y016907D01*
X028351Y016907D01*
X029101Y016992D02*
X029101Y014992D01*
X029016Y014907D01*
X028351Y014907D01*
X029101Y014992D02*
X029101Y012992D01*
X029016Y012907D01*
X028351Y012907D01*
X029101Y012992D02*
X029101Y010992D01*
X028435Y010992D01*
X028351Y010907D01*
X025601Y011742D02*
X022601Y014742D01*
X022101Y015242D01*
X022601Y015742D01*
X022851Y015742D01*
X022101Y015242D02*
X021601Y015742D01*
X021101Y015742D01*
X018101Y013742D02*
X016935Y013742D01*
X016935Y012742D02*
X018101Y012742D01*
X022601Y006742D02*
X022101Y006242D01*
X021601Y006242D01*
X018101Y006242D01*
X015351Y003242D01*
X014351Y003242D02*
X013601Y002742D01*
X012935Y002742D01*
X012266Y002742D02*
X012266Y004327D01*
X011851Y004742D01*
X012266Y002742D02*
X012266Y001242D01*
X012935Y001242D02*
X013601Y001242D01*
X014351Y001742D01*
X015351Y001742D02*
X019266Y001742D01*
X026851Y001742D01*
X026851Y005492D01*
X024851Y005492D01*
X023601Y006742D01*
X022601Y005242D02*
X021601Y006242D01*
X022601Y005242D02*
X022601Y003492D01*
X023351Y002742D01*
X024266Y002742D01*
X024935Y002742D02*
X025601Y003407D01*
X025601Y004242D01*
X021601Y004242D02*
X021601Y003407D01*
X020935Y002742D01*
X020266Y002742D02*
X019266Y001742D01*
X008351Y003242D02*
X004601Y003242D01*
X004101Y003742D01*
X002176Y003742D01*
X002101Y003667D01*
X002101Y001817D02*
X004026Y001817D01*
X004101Y001742D01*
X004101Y005742D02*
X004026Y005817D01*
X002101Y005817D01*
X002101Y007667D02*
X002176Y007742D01*
X004101Y007742D01*
X004601Y007242D01*
X008351Y007242D01*
X008351Y011242D02*
X004601Y011242D01*
X004101Y011742D01*
X002101Y011742D01*
X002101Y011667D01*
X002101Y009817D02*
X004026Y009817D01*
X004101Y009742D01*
X004101Y013742D02*
X004026Y013817D01*
X002101Y013817D01*
X002101Y015667D02*
X002176Y015742D01*
X004101Y015742D01*
X004601Y015242D01*
X008351Y015242D01*
X008351Y019242D02*
X006601Y019242D01*
X005101Y020742D01*
X004101Y020742D01*
X002176Y020742D01*
X002101Y020667D01*
X002101Y018817D02*
X004026Y018817D01*
X004101Y018742D01*
X004101Y022742D02*
X004026Y022817D01*
X002101Y022817D01*
X002101Y024667D02*
X002176Y024742D01*
X004101Y024742D01*
X005101Y024742D01*
X006601Y023242D01*
X008351Y023242D01*
X008351Y027242D02*
X006601Y027242D01*
X005101Y028742D01*
X004101Y028742D01*
X002176Y028742D01*
X002101Y028667D01*
X002101Y026817D02*
X004026Y026817D01*
X004101Y026742D01*
X004101Y030742D02*
X004026Y030817D01*
X002101Y030817D01*
X002101Y032667D02*
X002176Y032742D01*
X004101Y032742D01*
X005101Y032742D01*
X006601Y031242D01*
X008351Y031242D01*
X008351Y032242D02*
X008351Y033667D01*
X008426Y033742D01*
X021101Y031742D02*
X021101Y030242D01*
X021101Y027242D02*
X025101Y027242D01*
X025351Y027492D01*
X030101Y026742D02*
X030101Y028242D01*
D28*
X030026Y033242D02*
X031351Y033242D01*
X031476Y033367D01*
X032101Y033992D01*
X034851Y033992D01*
X035601Y034742D01*
X035601Y035742D01*
X037601Y035742D01*
X033601Y035742D02*
X031601Y035742D01*
X031601Y037742D01*
X029101Y037742D01*
X029101Y036547D01*
X028906Y036742D01*
X027601Y036742D01*
X027601Y036302D01*
X027601Y035182D02*
X027601Y034742D01*
X027601Y033817D01*
X028176Y033242D01*
X027601Y034742D02*
X028906Y034742D01*
X029101Y034936D01*
X023101Y035742D02*
X023101Y033742D01*
X015526Y033742D01*
X013676Y033742D02*
X013676Y031742D01*
X019101Y031742D01*
X019101Y035742D02*
X017101Y035742D01*
X017101Y038242D01*
X015101Y038242D01*
X015101Y037302D01*
X015101Y038242D02*
X013601Y038242D01*
X013601Y037547D01*
X013601Y035936D02*
X013601Y033742D01*
X013676Y033742D01*
X013601Y035936D02*
X015101Y035936D01*
X015101Y036182D01*
X011101Y035936D02*
X011101Y033742D01*
X010276Y033742D01*
X008426Y033742D02*
X007601Y033742D01*
X007601Y035742D01*
X005601Y035742D01*
X003601Y035742D02*
X003601Y038242D01*
X009601Y038242D01*
X009601Y037302D01*
X009601Y038242D02*
X011101Y038242D01*
X011101Y037547D01*
X011101Y035936D02*
X009601Y035936D01*
X009601Y036182D01*
X003601Y035742D02*
X001601Y035742D01*
D29*
X012351Y033742D03*
X011851Y004742D03*
D30*
X018321Y026132D02*
X020881Y026132D01*
X021101Y026352D01*
X021101Y027242D01*
X021101Y028742D01*
X021601Y029242D01*
X012601Y027242D02*
X011601Y027242D01*
D31*
X010851Y027992D02*
X010851Y024742D01*
X016851Y018742D01*
X018101Y018742D01*
X016601Y017742D02*
X010351Y023992D01*
X010351Y026492D01*
X009101Y027742D01*
X010851Y027992D02*
X011601Y028742D01*
X011601Y030742D01*
X010601Y031742D01*
X009101Y031742D01*
X009101Y023742D02*
X009101Y022492D01*
X014851Y016742D01*
X016101Y016242D02*
X013101Y016242D01*
X012601Y015742D01*
X012601Y011742D01*
X013101Y011242D01*
X016101Y011242D01*
X016351Y011742D01*
X016351Y012267D01*
X016314Y012267D01*
X016314Y012694D01*
X016218Y012694D01*
X015830Y012694D01*
X015830Y012423D01*
X015843Y012377D01*
X015866Y012336D01*
X015900Y012303D01*
X015941Y012279D01*
X015986Y012267D01*
X016218Y012267D01*
X016218Y012694D01*
X016218Y012790D01*
X016218Y013217D01*
X015986Y013217D01*
X015941Y013205D01*
X015900Y013181D01*
X015866Y013148D01*
X015843Y013107D01*
X015830Y013061D01*
X015830Y012790D01*
X016218Y012790D01*
X016314Y012790D01*
X016314Y013217D01*
X016351Y013217D01*
X016351Y013267D01*
X016314Y013267D01*
X016314Y013694D01*
X016218Y013694D01*
X015830Y013694D01*
X015830Y013423D01*
X015843Y013377D01*
X015866Y013336D01*
X015900Y013303D01*
X015941Y013279D01*
X015986Y013267D01*
X016218Y013267D01*
X016218Y013694D01*
X016218Y013790D01*
X016218Y014217D01*
X015986Y014217D01*
X015941Y014205D01*
X015900Y014181D01*
X015866Y014148D01*
X015843Y014107D01*
X015830Y014061D01*
X015830Y013790D01*
X016218Y013790D01*
X016314Y013790D01*
X016314Y014217D01*
X016351Y014217D01*
X016351Y014242D01*
X018101Y014242D01*
X018161Y014302D01*
X018101Y014302D01*
X018101Y014741D01*
X018101Y014741D01*
X018101Y014302D01*
X017806Y014302D01*
X017738Y014313D01*
X017672Y014334D01*
X017610Y014366D01*
X017554Y014406D01*
X017505Y014455D01*
X017464Y014511D01*
X017433Y014573D01*
X017412Y014639D01*
X017401Y014707D01*
X017401Y014742D01*
X018100Y014742D01*
X018100Y014742D01*
X017401Y014742D01*
X017401Y014776D01*
X017412Y014845D01*
X017433Y014911D01*
X017464Y014972D01*
X017505Y015029D01*
X017554Y015077D01*
X017610Y015118D01*
X017672Y015150D01*
X017738Y015171D01*
X017806Y015182D01*
X018101Y015182D01*
X018101Y014742D01*
X019435Y014742D01*
X019601Y014907D01*
X020266Y014242D01*
X022101Y014242D01*
X022601Y014742D01*
X021101Y014742D02*
X020266Y015577D01*
X019601Y015577D01*
X019435Y015742D01*
X018101Y015742D01*
X018101Y015242D02*
X018161Y015182D01*
X018101Y015182D01*
X018101Y014742D01*
X018101Y014742D01*
X018101Y014669D02*
X018101Y014669D01*
X018101Y014511D02*
X018101Y014511D01*
X018101Y014352D02*
X018101Y014352D01*
X018101Y014828D02*
X018101Y014828D01*
X018101Y014986D02*
X018101Y014986D01*
X018101Y015145D02*
X018101Y015145D01*
X018101Y015242D02*
X017101Y015242D01*
X016101Y016242D01*
X016246Y016096D02*
X012955Y016096D01*
X012797Y015938D02*
X016405Y015938D01*
X016564Y015779D02*
X012638Y015779D01*
X012601Y015621D02*
X016722Y015621D01*
X016881Y015462D02*
X012601Y015462D01*
X012601Y015304D02*
X017039Y015304D01*
X017475Y014986D02*
X012601Y014986D01*
X012601Y014828D02*
X017409Y014828D01*
X017407Y014669D02*
X012601Y014669D01*
X012601Y014511D02*
X014854Y014511D01*
X014874Y014531D02*
X014762Y014418D01*
X014701Y014271D01*
X014701Y014112D01*
X014762Y013965D01*
X014874Y013853D01*
X015021Y013792D01*
X015180Y013792D01*
X015327Y013853D01*
X015440Y013965D01*
X015501Y014112D01*
X015501Y014271D01*
X015440Y014418D01*
X015327Y014531D01*
X015180Y014592D01*
X015021Y014592D01*
X014874Y014531D01*
X014734Y014352D02*
X012601Y014352D01*
X012601Y014194D02*
X014701Y014194D01*
X014733Y014035D02*
X012601Y014035D01*
X012601Y013877D02*
X014850Y013877D01*
X015351Y013877D02*
X015830Y013877D01*
X015830Y014035D02*
X015469Y014035D01*
X015501Y014194D02*
X015921Y014194D01*
X016218Y014194D02*
X016314Y014194D01*
X016314Y014035D02*
X016218Y014035D01*
X016218Y013877D02*
X016314Y013877D01*
X016218Y013718D02*
X012601Y013718D01*
X012601Y013560D02*
X015830Y013560D01*
X015836Y013401D02*
X012601Y013401D01*
X012601Y013242D02*
X016351Y013242D01*
X016314Y013084D02*
X016218Y013084D01*
X016218Y012925D02*
X016314Y012925D01*
X016218Y012767D02*
X012601Y012767D01*
X012601Y012925D02*
X015830Y012925D01*
X015836Y013084D02*
X012601Y013084D01*
X012601Y012608D02*
X014851Y012608D01*
X014874Y012631D02*
X014762Y012518D01*
X014701Y012371D01*
X014701Y012212D01*
X014762Y012065D01*
X014874Y011953D01*
X015021Y011892D01*
X015180Y011892D01*
X015327Y011953D01*
X015440Y012065D01*
X015501Y012212D01*
X015501Y012371D01*
X015440Y012518D01*
X015327Y012631D01*
X015180Y012692D01*
X015021Y012692D01*
X014874Y012631D01*
X014733Y012450D02*
X012601Y012450D01*
X012601Y012291D02*
X014701Y012291D01*
X014734Y012133D02*
X012601Y012133D01*
X012601Y011974D02*
X014853Y011974D01*
X015349Y011974D02*
X016351Y011974D01*
X016351Y011816D02*
X012601Y011816D01*
X012686Y011657D02*
X016308Y011657D01*
X016229Y011498D02*
X012844Y011498D01*
X013003Y011340D02*
X016150Y011340D01*
X016351Y012133D02*
X015468Y012133D01*
X015501Y012291D02*
X015919Y012291D01*
X015830Y012450D02*
X015468Y012450D01*
X015350Y012608D02*
X015830Y012608D01*
X016218Y012608D02*
X016314Y012608D01*
X016314Y012450D02*
X016218Y012450D01*
X016218Y012291D02*
X016314Y012291D01*
X016314Y013401D02*
X016218Y013401D01*
X016218Y013560D02*
X016314Y013560D01*
X015467Y014352D02*
X017636Y014352D01*
X017465Y014511D02*
X015348Y014511D01*
X017663Y015145D02*
X012601Y015145D01*
X012101Y015492D02*
X012101Y016742D01*
X009101Y019742D01*
X009101Y015742D02*
X011601Y013242D01*
X011601Y011992D01*
X009101Y011742D02*
X009101Y010492D01*
X009851Y009742D01*
X010101Y008742D02*
X009101Y007742D01*
X009101Y003742D02*
X013101Y007742D01*
X020101Y007742D01*
X021101Y008742D01*
X021101Y009742D02*
X022601Y009742D01*
X026101Y006242D01*
X031101Y006242D01*
X031101Y008742D01*
X029851Y009992D01*
X027851Y009992D01*
X027101Y010742D01*
X027101Y011742D02*
X028185Y011742D01*
X028351Y011577D01*
X027101Y012742D02*
X026601Y012742D01*
X022601Y016742D01*
X021101Y016742D01*
X021101Y017742D02*
X023101Y017742D01*
X026101Y014742D01*
X027101Y014742D01*
X027101Y015742D02*
X028185Y015742D01*
X028351Y015577D01*
X027101Y016742D02*
X025101Y016742D01*
X023101Y018742D01*
X021101Y018742D01*
X021101Y019742D02*
X027101Y019742D01*
X027101Y020742D02*
X028185Y020742D01*
X028351Y020577D01*
X027101Y021742D02*
X024101Y021742D01*
X023101Y020742D01*
X021101Y020742D01*
X021101Y021742D02*
X022601Y021742D01*
X023601Y022742D01*
X025101Y022742D01*
X026101Y023742D01*
X027101Y023742D01*
X027101Y022742D02*
X028185Y022742D01*
X028351Y022577D01*
X030101Y021742D02*
X036351Y021742D01*
X036791Y022182D01*
X036851Y022182D01*
X036851Y023302D02*
X035661Y023302D01*
X035101Y022742D01*
X036351Y025742D02*
X033601Y025742D01*
X031601Y023742D01*
X030101Y023742D01*
X028351Y024577D02*
X028185Y024742D01*
X027101Y024742D01*
X027101Y025742D02*
X026601Y025742D01*
X025101Y024242D01*
X024601Y024242D01*
X024601Y025242D02*
X024101Y025242D01*
X022101Y023242D01*
X020601Y023242D01*
X019601Y022242D01*
X019601Y021242D01*
X019101Y020742D01*
X018101Y020742D01*
X018601Y020742D01*
X027101Y017742D02*
X028185Y017742D01*
X028351Y017577D01*
X030101Y016742D02*
X031101Y016742D01*
X031601Y016242D01*
X031601Y014992D01*
X033851Y012742D01*
X036351Y012742D01*
X036791Y013182D01*
X036851Y013182D01*
X036851Y014302D02*
X035661Y014302D01*
X035101Y013742D01*
X032601Y013242D02*
X031101Y014742D01*
X030101Y014742D01*
X028351Y013577D02*
X028185Y013742D01*
X027101Y013742D01*
X025601Y011742D02*
X025601Y009742D01*
X025851Y009492D01*
X028851Y009492D01*
X029601Y008742D01*
X031601Y009242D02*
X030101Y010742D01*
X031601Y009242D02*
X031601Y003992D01*
X032851Y002742D01*
X036351Y002742D01*
X036791Y002302D01*
X036851Y002302D01*
X036851Y001182D02*
X035661Y001182D01*
X035101Y001742D01*
X036101Y004742D02*
X033351Y004742D01*
X032101Y005992D01*
X032101Y011742D01*
X031101Y012742D01*
X030101Y012742D01*
X032601Y013242D02*
X032601Y009242D01*
X033101Y008742D01*
X036351Y008742D01*
X036791Y009182D01*
X036851Y009182D01*
X036851Y010302D02*
X035661Y010302D01*
X035101Y009742D01*
X035661Y006302D02*
X036851Y006302D01*
X036851Y005182D02*
X036541Y005182D01*
X036101Y004742D01*
X035101Y005742D02*
X035661Y006302D01*
X036351Y017242D02*
X032601Y017242D01*
X030101Y019742D01*
X035101Y018742D02*
X035661Y019302D01*
X036851Y019302D01*
X036851Y018182D02*
X036851Y017742D01*
X036351Y017242D01*
X036351Y025742D02*
X036791Y026182D01*
X036851Y026182D01*
X036851Y027302D02*
X035661Y027302D01*
X035101Y026742D01*
X036101Y029742D02*
X033601Y029742D01*
X031601Y027742D01*
X031601Y025992D01*
X031351Y025742D01*
X030101Y025742D01*
X028351Y026577D02*
X028185Y026742D01*
X027101Y026742D01*
X035101Y030742D02*
X035661Y031302D01*
X036851Y031302D01*
X036851Y030182D02*
X036541Y030182D01*
X036101Y029742D01*
D32*
X022851Y015742D03*
D33*
X018101Y016742D02*
X014851Y016742D01*
X016601Y017742D02*
X018101Y017742D01*
X018101Y021742D02*
X018101Y024132D01*
X018156Y024187D01*
X017101Y025242D01*
X017101Y026742D01*
X017601Y027242D01*
X019101Y027242D01*
X019435Y027577D01*
X019435Y028242D01*
X018766Y028242D02*
X017601Y028242D01*
X016601Y027242D01*
X014435Y024742D02*
X014825Y024352D01*
X018321Y024352D01*
X018156Y024187D01*
X012101Y015492D02*
X012101Y011742D01*
X013101Y010742D01*
X016101Y010742D01*
X017101Y011742D01*
X018101Y011742D01*
X018101Y010742D02*
X017101Y010742D01*
X016601Y010242D01*
X012601Y010242D01*
X011601Y011242D01*
X011601Y011992D01*
X009851Y009742D02*
X018101Y009742D01*
X018101Y008742D02*
X010101Y008742D01*
D34*
X021101Y010742D02*
X022601Y010742D01*
X026101Y007242D01*
X029101Y007242D01*
X029101Y008242D01*
X028601Y008742D01*
X028101Y008242D02*
X028601Y007742D01*
X028101Y008242D02*
X026101Y008242D01*
X022101Y012242D01*
X021601Y012242D01*
X021101Y012742D01*
X021101Y011742D02*
X022101Y011742D01*
X026101Y007742D01*
X027601Y007742D01*
X027601Y008742D02*
X026101Y008742D01*
X021101Y013742D01*
D35*
X022601Y007742D02*
X022601Y006742D01*
X023601Y006742D02*
X023601Y007742D01*
M02*
