G75*
G70*
%OFA0B0*%
%FSLAX24Y24*%
%IPPOS*%
%LPD*%
%AMOC8*
5,1,8,0,0,1.08239X$1,22.5*
%
%ADD10C,0.0000*%
%ADD11C,0.0825*%
%ADD12OC8,0.0520*%
%ADD13C,0.0520*%
%ADD14C,0.0600*%
%ADD15C,0.0660*%
%ADD16C,0.0520*%
%ADD17C,0.0640*%
%ADD18C,0.1000*%
%ADD19OC8,0.1000*%
%ADD20C,0.0560*%
%ADD21OC8,0.0560*%
%ADD22C,0.0320*%
%ADD23C,0.0472*%
%ADD24C,0.0315*%
%ADD25C,0.0700*%
%ADD26C,0.0356*%
%ADD27C,0.0157*%
%ADD28C,0.0160*%
D10*
X000101Y000242D02*
X000101Y039612D01*
X039093Y039612D01*
X039093Y000242D01*
X000101Y000242D01*
X009471Y002242D02*
X009473Y002292D01*
X009479Y002342D01*
X009489Y002391D01*
X009503Y002439D01*
X009520Y002486D01*
X009541Y002531D01*
X009566Y002575D01*
X009594Y002616D01*
X009626Y002655D01*
X009660Y002692D01*
X009697Y002726D01*
X009737Y002756D01*
X009779Y002783D01*
X009823Y002807D01*
X009869Y002828D01*
X009916Y002844D01*
X009964Y002857D01*
X010014Y002866D01*
X010063Y002871D01*
X010114Y002872D01*
X010164Y002869D01*
X010213Y002862D01*
X010262Y002851D01*
X010310Y002836D01*
X010356Y002818D01*
X010401Y002796D01*
X010444Y002770D01*
X010485Y002741D01*
X010524Y002709D01*
X010560Y002674D01*
X010592Y002636D01*
X010622Y002596D01*
X010649Y002553D01*
X010672Y002509D01*
X010691Y002463D01*
X010707Y002415D01*
X010719Y002366D01*
X010727Y002317D01*
X010731Y002267D01*
X010731Y002217D01*
X010727Y002167D01*
X010719Y002118D01*
X010707Y002069D01*
X010691Y002021D01*
X010672Y001975D01*
X010649Y001931D01*
X010622Y001888D01*
X010592Y001848D01*
X010560Y001810D01*
X010524Y001775D01*
X010485Y001743D01*
X010444Y001714D01*
X010401Y001688D01*
X010356Y001666D01*
X010310Y001648D01*
X010262Y001633D01*
X010213Y001622D01*
X010164Y001615D01*
X010114Y001612D01*
X010063Y001613D01*
X010014Y001618D01*
X009964Y001627D01*
X009916Y001640D01*
X009869Y001656D01*
X009823Y001677D01*
X009779Y001701D01*
X009737Y001728D01*
X009697Y001758D01*
X009660Y001792D01*
X009626Y001829D01*
X009594Y001868D01*
X009566Y001909D01*
X009541Y001953D01*
X009520Y001998D01*
X009503Y002045D01*
X009489Y002093D01*
X009479Y002142D01*
X009473Y002192D01*
X009471Y002242D01*
X028971Y002242D02*
X028973Y002292D01*
X028979Y002342D01*
X028989Y002391D01*
X029003Y002439D01*
X029020Y002486D01*
X029041Y002531D01*
X029066Y002575D01*
X029094Y002616D01*
X029126Y002655D01*
X029160Y002692D01*
X029197Y002726D01*
X029237Y002756D01*
X029279Y002783D01*
X029323Y002807D01*
X029369Y002828D01*
X029416Y002844D01*
X029464Y002857D01*
X029514Y002866D01*
X029563Y002871D01*
X029614Y002872D01*
X029664Y002869D01*
X029713Y002862D01*
X029762Y002851D01*
X029810Y002836D01*
X029856Y002818D01*
X029901Y002796D01*
X029944Y002770D01*
X029985Y002741D01*
X030024Y002709D01*
X030060Y002674D01*
X030092Y002636D01*
X030122Y002596D01*
X030149Y002553D01*
X030172Y002509D01*
X030191Y002463D01*
X030207Y002415D01*
X030219Y002366D01*
X030227Y002317D01*
X030231Y002267D01*
X030231Y002217D01*
X030227Y002167D01*
X030219Y002118D01*
X030207Y002069D01*
X030191Y002021D01*
X030172Y001975D01*
X030149Y001931D01*
X030122Y001888D01*
X030092Y001848D01*
X030060Y001810D01*
X030024Y001775D01*
X029985Y001743D01*
X029944Y001714D01*
X029901Y001688D01*
X029856Y001666D01*
X029810Y001648D01*
X029762Y001633D01*
X029713Y001622D01*
X029664Y001615D01*
X029614Y001612D01*
X029563Y001613D01*
X029514Y001618D01*
X029464Y001627D01*
X029416Y001640D01*
X029369Y001656D01*
X029323Y001677D01*
X029279Y001701D01*
X029237Y001728D01*
X029197Y001758D01*
X029160Y001792D01*
X029126Y001829D01*
X029094Y001868D01*
X029066Y001909D01*
X029041Y001953D01*
X029020Y001998D01*
X029003Y002045D01*
X028989Y002093D01*
X028979Y002142D01*
X028973Y002192D01*
X028971Y002242D01*
X028971Y030242D02*
X028973Y030292D01*
X028979Y030342D01*
X028989Y030391D01*
X029003Y030439D01*
X029020Y030486D01*
X029041Y030531D01*
X029066Y030575D01*
X029094Y030616D01*
X029126Y030655D01*
X029160Y030692D01*
X029197Y030726D01*
X029237Y030756D01*
X029279Y030783D01*
X029323Y030807D01*
X029369Y030828D01*
X029416Y030844D01*
X029464Y030857D01*
X029514Y030866D01*
X029563Y030871D01*
X029614Y030872D01*
X029664Y030869D01*
X029713Y030862D01*
X029762Y030851D01*
X029810Y030836D01*
X029856Y030818D01*
X029901Y030796D01*
X029944Y030770D01*
X029985Y030741D01*
X030024Y030709D01*
X030060Y030674D01*
X030092Y030636D01*
X030122Y030596D01*
X030149Y030553D01*
X030172Y030509D01*
X030191Y030463D01*
X030207Y030415D01*
X030219Y030366D01*
X030227Y030317D01*
X030231Y030267D01*
X030231Y030217D01*
X030227Y030167D01*
X030219Y030118D01*
X030207Y030069D01*
X030191Y030021D01*
X030172Y029975D01*
X030149Y029931D01*
X030122Y029888D01*
X030092Y029848D01*
X030060Y029810D01*
X030024Y029775D01*
X029985Y029743D01*
X029944Y029714D01*
X029901Y029688D01*
X029856Y029666D01*
X029810Y029648D01*
X029762Y029633D01*
X029713Y029622D01*
X029664Y029615D01*
X029614Y029612D01*
X029563Y029613D01*
X029514Y029618D01*
X029464Y029627D01*
X029416Y029640D01*
X029369Y029656D01*
X029323Y029677D01*
X029279Y029701D01*
X029237Y029728D01*
X029197Y029758D01*
X029160Y029792D01*
X029126Y029829D01*
X029094Y029868D01*
X029066Y029909D01*
X029041Y029953D01*
X029020Y029998D01*
X029003Y030045D01*
X028989Y030093D01*
X028979Y030142D01*
X028973Y030192D01*
X028971Y030242D01*
X009471Y030242D02*
X009473Y030292D01*
X009479Y030342D01*
X009489Y030391D01*
X009503Y030439D01*
X009520Y030486D01*
X009541Y030531D01*
X009566Y030575D01*
X009594Y030616D01*
X009626Y030655D01*
X009660Y030692D01*
X009697Y030726D01*
X009737Y030756D01*
X009779Y030783D01*
X009823Y030807D01*
X009869Y030828D01*
X009916Y030844D01*
X009964Y030857D01*
X010014Y030866D01*
X010063Y030871D01*
X010114Y030872D01*
X010164Y030869D01*
X010213Y030862D01*
X010262Y030851D01*
X010310Y030836D01*
X010356Y030818D01*
X010401Y030796D01*
X010444Y030770D01*
X010485Y030741D01*
X010524Y030709D01*
X010560Y030674D01*
X010592Y030636D01*
X010622Y030596D01*
X010649Y030553D01*
X010672Y030509D01*
X010691Y030463D01*
X010707Y030415D01*
X010719Y030366D01*
X010727Y030317D01*
X010731Y030267D01*
X010731Y030217D01*
X010727Y030167D01*
X010719Y030118D01*
X010707Y030069D01*
X010691Y030021D01*
X010672Y029975D01*
X010649Y029931D01*
X010622Y029888D01*
X010592Y029848D01*
X010560Y029810D01*
X010524Y029775D01*
X010485Y029743D01*
X010444Y029714D01*
X010401Y029688D01*
X010356Y029666D01*
X010310Y029648D01*
X010262Y029633D01*
X010213Y029622D01*
X010164Y029615D01*
X010114Y029612D01*
X010063Y029613D01*
X010014Y029618D01*
X009964Y029627D01*
X009916Y029640D01*
X009869Y029656D01*
X009823Y029677D01*
X009779Y029701D01*
X009737Y029728D01*
X009697Y029758D01*
X009660Y029792D01*
X009626Y029829D01*
X009594Y029868D01*
X009566Y029909D01*
X009541Y029953D01*
X009520Y029998D01*
X009503Y030045D01*
X009489Y030093D01*
X009479Y030142D01*
X009473Y030192D01*
X009471Y030242D01*
D11*
X004513Y030742D02*
X003688Y030742D01*
X003688Y032742D02*
X004513Y032742D01*
X003601Y035329D02*
X003601Y036154D01*
X005601Y036154D02*
X005601Y035329D01*
X007601Y035329D02*
X007601Y036154D01*
X001601Y036154D02*
X001601Y035329D01*
X003688Y028742D02*
X004513Y028742D01*
X004513Y026742D02*
X003688Y026742D01*
X003688Y024742D02*
X004513Y024742D01*
X004513Y022742D02*
X003688Y022742D01*
X003688Y020742D02*
X004513Y020742D01*
X004513Y018742D02*
X003688Y018742D01*
X003688Y015742D02*
X004513Y015742D01*
X004513Y013742D02*
X003688Y013742D01*
X003688Y011742D02*
X004513Y011742D01*
X004513Y009742D02*
X003688Y009742D01*
X003688Y007742D02*
X004513Y007742D01*
X004513Y005742D02*
X003688Y005742D01*
X003688Y003742D02*
X004513Y003742D01*
X004513Y001742D02*
X003688Y001742D01*
X019601Y003829D02*
X019601Y004654D01*
X021601Y004654D02*
X021601Y003829D01*
X023601Y003829D02*
X023601Y004654D01*
X025601Y004654D02*
X025601Y003829D01*
X034688Y003742D02*
X035513Y003742D01*
X035513Y005742D02*
X034688Y005742D01*
X034688Y007742D02*
X035513Y007742D01*
X035513Y009742D02*
X034688Y009742D01*
X034688Y011742D02*
X035513Y011742D01*
X035513Y013742D02*
X034688Y013742D01*
X034688Y015742D02*
X035513Y015742D01*
X035513Y018742D02*
X034688Y018742D01*
X034688Y020742D02*
X035513Y020742D01*
X035513Y022742D02*
X034688Y022742D01*
X034688Y024742D02*
X035513Y024742D01*
X035513Y026742D02*
X034688Y026742D01*
X034688Y028742D02*
X035513Y028742D01*
X035513Y030742D02*
X034688Y030742D01*
X034688Y032742D02*
X035513Y032742D01*
X035601Y035329D02*
X035601Y036154D01*
X037601Y036154D02*
X037601Y035329D01*
X033601Y035329D02*
X033601Y036154D01*
X031601Y036154D02*
X031601Y035329D01*
X023101Y035329D02*
X023101Y036154D01*
X021101Y036154D02*
X021101Y035329D01*
X019101Y035329D02*
X019101Y036154D01*
X017101Y036154D02*
X017101Y035329D01*
X034688Y001742D02*
X035513Y001742D01*
D12*
X009101Y003742D03*
X008351Y004242D03*
X008351Y003242D03*
X008351Y007242D03*
X009101Y007742D03*
X008351Y008242D03*
X008351Y011242D03*
X009101Y011742D03*
X008351Y012242D03*
X008351Y015242D03*
X009101Y015742D03*
X008351Y016242D03*
X008351Y019242D03*
X009101Y019742D03*
X008351Y020242D03*
X008351Y023242D03*
X009101Y023742D03*
X008351Y024242D03*
X008351Y027242D03*
X009101Y027742D03*
X008351Y028242D03*
X008351Y031242D03*
X009101Y031742D03*
X008351Y032242D03*
D13*
X017841Y021742D02*
X018361Y021742D01*
X018361Y020742D02*
X017841Y020742D01*
X017841Y019742D02*
X018361Y019742D01*
X018361Y018742D02*
X017841Y018742D01*
X017841Y017742D02*
X018361Y017742D01*
X018361Y016742D02*
X017841Y016742D01*
X017841Y015742D02*
X018361Y015742D01*
X018361Y014742D02*
X017841Y014742D01*
X017841Y013742D02*
X018361Y013742D01*
X018361Y012742D02*
X017841Y012742D01*
X017841Y011742D02*
X018361Y011742D01*
X018361Y010742D02*
X017841Y010742D01*
X017841Y009742D02*
X018361Y009742D01*
X018361Y008742D02*
X017841Y008742D01*
X020841Y008742D02*
X021361Y008742D01*
X021361Y009742D02*
X020841Y009742D01*
X020841Y010742D02*
X021361Y010742D01*
X021361Y011742D02*
X020841Y011742D01*
X020841Y012742D02*
X021361Y012742D01*
X021361Y013742D02*
X020841Y013742D01*
X020841Y014742D02*
X021361Y014742D01*
X021361Y015742D02*
X020841Y015742D01*
X020841Y016742D02*
X021361Y016742D01*
X021361Y017742D02*
X020841Y017742D01*
X020841Y018742D02*
X021361Y018742D01*
X021361Y019742D02*
X020841Y019742D01*
X020841Y020742D02*
X021361Y020742D01*
X021361Y021742D02*
X020841Y021742D01*
X026581Y021742D02*
X027101Y021742D01*
X027101Y020742D02*
X026581Y020742D01*
X026581Y019742D02*
X027101Y019742D01*
X027101Y017742D02*
X026581Y017742D01*
X026581Y016742D02*
X027101Y016742D01*
X027101Y015742D02*
X026581Y015742D01*
X026581Y014742D02*
X027101Y014742D01*
X027101Y013742D02*
X026581Y013742D01*
X026581Y012742D02*
X027101Y012742D01*
X027101Y011742D02*
X026581Y011742D01*
X026581Y010742D02*
X027101Y010742D01*
X030101Y010742D02*
X030621Y010742D01*
X030621Y011742D02*
X030101Y011742D01*
X030101Y012742D02*
X030621Y012742D01*
X030621Y013742D02*
X030101Y013742D01*
X030101Y014742D02*
X030621Y014742D01*
X030621Y015742D02*
X030101Y015742D01*
X030101Y016742D02*
X030621Y016742D01*
X030621Y017742D02*
X030101Y017742D01*
X030101Y019742D02*
X030621Y019742D01*
X030621Y020742D02*
X030101Y020742D01*
X030101Y021742D02*
X030621Y021742D01*
X030621Y022742D02*
X030101Y022742D01*
X030101Y023742D02*
X030621Y023742D01*
X030621Y024742D02*
X030101Y024742D01*
X030101Y025742D02*
X030621Y025742D01*
X030621Y026742D02*
X030101Y026742D01*
X027101Y026742D02*
X026581Y026742D01*
X026581Y025742D02*
X027101Y025742D01*
X027101Y024742D02*
X026581Y024742D01*
X026581Y023742D02*
X027101Y023742D01*
X027101Y022742D02*
X026581Y022742D01*
D14*
X021181Y024352D02*
X020581Y024352D01*
X020581Y026132D02*
X021181Y026132D01*
X018621Y026132D02*
X018021Y026132D01*
X018021Y024352D02*
X018621Y024352D01*
D15*
X016601Y027242D03*
X015601Y027242D03*
X014601Y027242D03*
X013601Y027242D03*
X012601Y027242D03*
X011601Y027242D03*
D16*
X015101Y014192D03*
X015101Y012292D03*
D17*
X027601Y008742D03*
X028601Y008742D03*
X028601Y007742D03*
X027601Y007742D03*
X029601Y007742D03*
X029601Y008742D03*
D18*
X019101Y031742D03*
D19*
X021101Y031742D03*
D20*
X024071Y030492D02*
X024631Y030492D01*
X024631Y029492D02*
X024071Y029492D01*
X026071Y029492D02*
X026631Y029492D01*
X026631Y030492D02*
X026071Y030492D01*
X024881Y026242D02*
X024321Y026242D01*
X024321Y025242D02*
X024881Y025242D01*
X024881Y024242D02*
X024321Y024242D01*
X015351Y003522D02*
X015351Y002962D01*
X015351Y002022D02*
X015351Y001462D01*
X014351Y001462D02*
X014351Y002022D01*
X014351Y002962D02*
X014351Y003522D01*
D21*
X022601Y006742D03*
X023601Y006742D03*
X023601Y007742D03*
X022601Y007742D03*
D22*
X030101Y011742D02*
X031601Y011742D01*
X031601Y013742D01*
X030101Y013742D01*
X031601Y013742D02*
X031601Y015742D01*
X030101Y015742D01*
X031601Y015742D02*
X031601Y017742D01*
X030101Y017742D01*
X031601Y017742D02*
X031601Y020742D01*
X030101Y020742D01*
X031601Y020742D02*
X031601Y022742D01*
X030101Y022742D01*
X031601Y022742D02*
X031601Y024742D01*
X030101Y024742D01*
X031601Y024742D02*
X031601Y026742D01*
X030101Y026742D01*
X027601Y028242D02*
X026351Y029492D01*
X026351Y030492D02*
X026351Y032492D01*
X024101Y032492D01*
X021101Y029492D01*
X018101Y029492D01*
X015351Y032242D01*
X012351Y032242D01*
X012351Y033742D01*
X012351Y032242D02*
X011851Y032242D01*
X009851Y034242D01*
X002101Y034242D01*
X002101Y030742D01*
X002101Y026742D01*
X004101Y026742D01*
X005601Y027992D02*
X005601Y032242D01*
X008351Y032242D01*
X008851Y028742D02*
X008351Y028242D01*
X005601Y028242D01*
X004101Y030742D02*
X002101Y030742D01*
X002101Y026742D02*
X002101Y022742D01*
X004101Y022742D01*
X005601Y024242D02*
X008351Y024242D01*
X011601Y027242D02*
X011601Y027992D01*
X010851Y028742D01*
X008851Y028742D01*
X002101Y022742D02*
X002101Y018742D01*
X004101Y018742D01*
X005601Y020242D02*
X008351Y020242D01*
X008351Y016242D02*
X005601Y016242D01*
X004101Y013742D02*
X002101Y013742D01*
X002101Y018742D01*
X002101Y013742D02*
X002101Y009742D01*
X004101Y009742D01*
X005601Y008242D02*
X008351Y008242D01*
X008851Y004742D02*
X011851Y004742D01*
X008851Y004742D02*
X008351Y004242D01*
X005601Y004242D01*
X004101Y005742D02*
X002101Y005742D01*
X002101Y009742D01*
X005601Y012242D02*
X008351Y012242D01*
X002101Y005742D02*
X002101Y001817D01*
X004101Y001817D01*
X004101Y001742D01*
X022851Y015742D02*
X025851Y018742D01*
X025851Y027242D01*
X019846Y027242D01*
X019846Y027166D01*
X020881Y026132D01*
X019846Y027166D02*
X018271Y028742D01*
X016601Y028742D01*
X027601Y028242D02*
X033101Y028242D01*
X033101Y028742D01*
X035101Y028742D01*
X033101Y028742D02*
X033101Y032742D01*
X035101Y032742D01*
X033101Y028242D02*
X033101Y024742D01*
X035101Y024742D01*
X033101Y024742D02*
X033101Y020742D01*
X035101Y020742D01*
X033101Y020742D02*
X033101Y015742D01*
X035101Y015742D01*
X033101Y015742D02*
X033101Y011742D01*
X033101Y007742D01*
X035101Y007742D01*
X033101Y007742D02*
X033101Y003742D01*
X035101Y003742D01*
X035101Y011742D02*
X033101Y011742D01*
D23*
X011851Y004742D03*
X012351Y033742D03*
D24*
X014101Y028742D02*
X012601Y027242D01*
X014101Y028742D02*
X016601Y028742D01*
X018211Y026132D02*
X018321Y026132D01*
X005601Y027992D02*
X005601Y024242D01*
X005601Y020242D01*
X005601Y016242D01*
X005601Y012242D01*
X005601Y008242D01*
X005601Y004242D01*
X005601Y027992D02*
X005601Y028242D01*
D25*
X021101Y031742D02*
X021101Y035742D01*
X023101Y035742D01*
X023601Y004242D02*
X025601Y004242D01*
X021601Y004242D02*
X019601Y004242D01*
D26*
X022851Y015742D03*
D27*
X019101Y019742D02*
X019101Y022242D01*
X018601Y022742D01*
X017601Y022742D01*
X015601Y024742D01*
X013601Y027242D02*
X013601Y019742D01*
X017601Y015742D01*
X018101Y015742D01*
X018101Y019742D02*
X019101Y019742D01*
X020101Y022572D02*
X018321Y024352D01*
X020881Y024352D01*
X020101Y022572D02*
X020101Y006242D01*
X020601Y005742D01*
X029601Y005742D01*
X029601Y007742D01*
D28*
X023601Y007742D02*
X023601Y011242D01*
X022101Y012742D01*
X021101Y012742D01*
X021101Y011742D02*
X022101Y011742D01*
X022601Y011242D01*
X022601Y007742D01*
X018101Y012742D02*
X015551Y012742D01*
X015101Y012292D01*
X015551Y013742D02*
X018101Y013742D01*
X015551Y013742D02*
X015101Y014192D01*
X021101Y013742D02*
X021101Y014742D01*
X015601Y024742D02*
X015601Y027242D01*
X014601Y027242D02*
X014601Y027992D01*
X017351Y027992D01*
X017351Y025242D01*
X022101Y025242D01*
X023101Y026242D01*
X024601Y026242D01*
M02*
